<?xml version="1.0" encoding="utf-8"?>
<!-- Generator: Adobe Illustrator 18.1.1, SVG Export Plug-In . SVG Version: 6.00 Build 0)  -->
<svg version="1.1" id="Layer_1" xmlns="http://www.w3.org/2000/svg" xmlns:xlink="http://www.w3.org/1999/xlink" x="0px" y="0px"
	 viewBox="0 0 500 500" enable-background="new 0 0 500 500" xml:space="preserve">
<g>
	<defs>
		<rect id="SVGID_1_" x="3.5" y="3.6" width="492.9" height="493"/>
	</defs>
	<clipPath id="SVGID_2_">
		<use xlink:href="#SVGID_1_"  overflow="visible"/>
	</clipPath>
	<path clip-path="url(#SVGID_2_)" fill="#CB6828" d="M297.8,86.7c22.5,17,38.4,45.8,41.2,79.3c9.2,5.1,19.4,8.1,30.2,8.1
		c39.5,0,71.5-38.5,71.5-86.1c0-47.6-32-86.1-71.5-86.1C330.1,1.9,298.4,39.8,297.8,86.7L297.8,86.7z M250.9,263.1
		c39.5,0,71.5-38.5,71.5-86.1c0-47.6-32-86.1-71.5-86.1c-39.5,0-71.5,38.5-71.5,86.1C179.4,224.5,211.4,263.1,250.9,263.1
		L250.9,263.1z M281.3,268.9h-60.7c-50.5,0-91.6,49.5-91.6,110.3v89.4l0.2,1.4l5.1,1.9c48.2,18.1,90,24.2,124.5,24.2
		c67.3,0,106.3-23.1,108.7-24.6l4.8-2.9h0.5v-89.4C372.9,318.4,331.8,268.9,281.3,268.9L281.3,268.9z M399.6,180h-60.2
		c-0.7,29-10.9,55.1-27.2,73.9c44.9,16.1,77.7,66.2,77.7,125.4v27.5c59.5-2.6,93.7-22.9,96-24.3l4.8-2.9h0.5v-89.4
		C491.2,229.5,450.1,180,399.6,180L399.6,180z M125.5,174.2c14,0,27-4.9,38-13.3c3.5-27.5,15.8-51.6,33.3-68
		c0.1-1.6,0.2-3.2,0.2-4.8c0-47.6-32-86.1-71.5-86.1C86,1.9,53.9,40.5,53.9,88C53.9,135.6,86,174.2,125.5,174.2L125.5,174.2z
		 M189.7,254c-16.2-18.7-26.4-44.7-27.2-73.5c-2.2-0.2-4.5-0.4-6.7-0.4H95.1c-50.5,0-91.6,49.4-91.6,110.2v89.4l0.2,1.4l5.1,1.9
		C47.5,397.5,82,404.2,112,406.3v-27C112,320.1,144.8,270,189.7,254L189.7,254z M189.7,254"/>
</g>
</svg>
