<?xml version="1.0" encoding="utf-8"?>
<!-- Generator: Adobe Illustrator 18.1.1, SVG Export Plug-In . SVG Version: 6.00 Build 0)  -->
<svg version="1.1" id="Layer_1" xmlns="http://www.w3.org/2000/svg" xmlns:xlink="http://www.w3.org/1999/xlink" x="0px" y="0px"
	 viewBox="0 0 663 553.5" enable-background="new 0 0 663 553.5" xml:space="preserve">
<g>
	<g>
		<defs>
			<rect id="SVGID_1_" x="4" y="2.9" width="663" height="550.6"/>
		</defs>
		<clipPath id="SVGID_2_">
			<use xlink:href="#SVGID_1_"  overflow="visible"/>
		</clipPath>
		<path clip-path="url(#SVGID_2_)" fill="#CCCCCC" d="M399.8,95.7c30.3,19,51.6,51.2,55.5,88.6c12.3,5.8,26.1,9.1,40.6,9.1
			c53.1,0,96.2-43,96.2-96.2C592.1,44,549,1,495.9,1C443.3,1,400.6,43.3,399.8,95.7L399.8,95.7z M336.8,292.7
			c53.2,0,96.2-43,96.2-96.2c0-53.1-43-96.2-96.2-96.2c-53.1,0-96.2,43-96.2,96.2C240.6,249.6,283.6,292.7,336.8,292.7L336.8,292.7z
			 M377.6,299.2H296c-67.9,0-123.2,55.3-123.2,123.2v99.8l0.3,1.6l6.9,2.2c64.8,20.2,121.1,27,167.5,27c90.5,0,143-25.8,146.2-27.5
			l6.4-3.2h0.7v-99.8C500.7,354.5,445.5,299.2,377.6,299.2L377.6,299.2z M536.7,200h-81c-0.9,32.4-14.7,61.6-36.6,82.6
			c60.4,17.9,104.6,73.9,104.6,140v30.7c80-2.9,126.1-25.6,129.1-27.1l6.4-3.3h0.7v-99.8C659.9,255.2,604.6,200,536.7,200L536.7,200
			z M168,193.4c18.8,0,36.3-5.5,51.2-14.9c4.7-30.7,21.2-57.6,44.8-75.9c0.1-1.8,0.3-3.6,0.3-5.4C264.2,44.1,221.1,1,168,1
			c-53.1,0-96.2,43.1-96.2,96.2C71.8,150.3,114.9,193.4,168,193.4L168,193.4z M254.4,282.5c-21.8-20.9-35.6-49.9-36.6-82.1
			c-3-0.2-6-0.4-9-0.4h-81.6C59.2,200,4,255.2,4,323.1v99.8l0.2,1.6l6.9,2.2c52,16.2,98.4,23.7,138.7,26.1v-30.1
			C149.8,356.4,194,300.5,254.4,282.5L254.4,282.5z M254.4,282.5"/>
	</g>
</g>
</svg>
