<?xml version="1.0" encoding="utf-8"?>
<!-- Generator: Adobe Illustrator 18.1.1, SVG Export Plug-In . SVG Version: 6.00 Build 0)  -->
<svg version="1.1" id="Layer_1" xmlns="http://www.w3.org/2000/svg" xmlns:xlink="http://www.w3.org/1999/xlink" x="0px" y="0px"
	 viewBox="0 0 657 551.8" enable-background="new 0 0 657 551.8" xml:space="preserve">
<g>
	<defs>
		<rect id="SVGID_1_" y="1.2" width="663" height="550.6"/>
	</defs>
	<clipPath id="SVGID_2_">
		<use xlink:href="#SVGID_1_"  overflow="visible"/>
	</clipPath>
	<path clip-path="url(#SVGID_2_)" fill="#C57129" d="M395.8,94c30.3,19,51.6,51.2,55.5,88.6c12.3,5.8,26.1,9.1,40.6,9.1
		c53.1,0,96.2-43,96.2-96.2c0-53.2-43.1-96.2-96.2-96.2C439.3-0.7,396.6,41.6,395.8,94L395.8,94z M332.8,291
		c53.2,0,96.2-43,96.2-96.2c0-53.1-43-96.2-96.2-96.2c-53.1,0-96.2,43-96.2,96.2C236.6,248,279.6,291,332.8,291L332.8,291z
		 M373.6,297.6H292c-67.9,0-123.2,55.3-123.2,123.2v99.8l0.3,1.6l6.9,2.2c64.8,20.2,121.1,27,167.5,27c90.5,0,143-25.8,146.2-27.5
		l6.4-3.2h0.7v-99.8C496.7,352.8,441.5,297.6,373.6,297.6L373.6,297.6z M532.7,198.3h-81c-0.9,32.4-14.7,61.6-36.6,82.6
		c60.4,17.9,104.6,73.9,104.6,140v30.7c80-2.9,126.1-25.6,129.1-27.1l6.4-3.3h0.7v-99.8C655.9,253.5,600.6,198.3,532.7,198.3
		L532.7,198.3z M164,191.7c18.8,0,36.3-5.5,51.2-14.9c4.7-30.7,21.2-57.6,44.8-75.9c0.1-1.8,0.3-3.6,0.3-5.4
		c0-53.1-43.1-96.2-96.2-96.2c-53.1,0-96.2,43.1-96.2,96.2C67.8,148.6,110.9,191.7,164,191.7L164,191.7z M250.4,280.9
		c-21.8-20.9-35.6-49.9-36.6-82.1c-3-0.2-6-0.4-9-0.4h-81.6C55.2,198.3,0,253.5,0,321.4v99.8l0.2,1.6l6.9,2.2
		c52,16.2,98.4,23.7,138.7,26.1v-30.1C145.8,354.8,190,298.8,250.4,280.9L250.4,280.9z M250.4,280.9"/>
</g>
</svg>
