<?xml version="1.0" encoding="utf-8"?>
<!-- Generator: Adobe Illustrator 18.1.1, SVG Export Plug-In . SVG Version: 6.00 Build 0)  -->
<svg version="1.1" id="Layer_1" xmlns="http://www.w3.org/2000/svg" xmlns:xlink="http://www.w3.org/1999/xlink" x="0px" y="0px"
	 viewBox="0 0 746.3 551" enable-background="new 0 0 746.3 551" xml:space="preserve">
<path fill="#C57129" d="M634.7,0H293.8c-61.6,0-111.6,50.1-111.6,111.6v15.8h195.5c77.6,0,140.7,63.1,140.7,140.8V337l54.2,54.2
	c4.7,4.7,10.9,7.3,17.4,7.3c13.7,0,24.8-11.1,24.8-24.8v-45.5h19.9c61.6,0,111.6-50.1,111.6-111.7V111.6C746.4,50.1,696.3,0,634.7,0
	L634.7,0z M634.7,0"/>
<path fill="#C57129" d="M377.6,163.6h-273c-9,0-17.8,1.1-26.1,3.3C33.4,178.5,0,219.5,0,268.3v117.3c0,18.1,4.6,35,12.6,49.9
	c1.6,3,3.4,5.9,5.2,8.6c3.8,5.6,8,10.8,12.8,15.5c18.9,18.9,45.1,30.6,74,30.6h42.5V531c0,1,0.1,2,0.2,2.9c0,0.2,0.1,0.5,0.1,0.7
	c0.2,0.9,0.3,1.7,0.6,2.5c0,0.1,0,0.1,0,0.2c0.3,0.9,0.6,1.7,1,2.5c0.1,0.2,0.2,0.4,0.3,0.6c0.4,0.7,0.7,1.3,1.2,2
	c0,0.1,0.1,0.2,0.2,0.3c0.5,0.7,1,1.3,1.6,1.9c0.2,0.2,0.3,0.3,0.5,0.5c0.5,0.5,1,1,1.6,1.4c0.1,0.1,0.2,0.2,0.3,0.3
	c0.6,0.5,1.3,1,2,1.4c0.2,0.1,0.4,0.2,0.5,0.3c0.6,0.3,1.3,0.7,1.9,0.9c0.1,0.1,0.3,0.1,0.4,0.2c0.8,0.3,1.5,0.6,2.3,0.8
	c0.2,0.1,0.4,0.1,0.6,0.1c0.7,0.2,1.4,0.3,2,0.4c0.2,0,0.4,0.1,0.5,0.1c0.8,0.1,1.7,0.1,2.5,0.1c0.2,0,0.4,0,0.5,0
	c0.7,0,1.5-0.1,2.2-0.2c0.1,0,0.3-0.1,0.4-0.1c0.8-0.1,1.6-0.4,2.5-0.6c0.2,0,0.4-0.1,0.6-0.2c0.7-0.3,1.5-0.6,2.2-0.9
	c0.1,0,0.2-0.1,0.3-0.1c0.8-0.4,1.6-0.9,2.3-1.4c0.2-0.1,0.4-0.3,0.5-0.4c0.8-0.6,1.5-1.2,2.2-1.9l54.9-54.9h141.5
	c57.8,0,104.6-46.8,104.6-104.6V268.3C482.3,210.5,435.4,163.6,377.6,163.6L377.6,163.6z M377.6,163.6"/>
</svg>
