<?xml version="1.0" encoding="utf-8"?>
<!-- Generator: Adobe Illustrator 18.1.1, SVG Export Plug-In . SVG Version: 6.00 Build 0)  -->
<svg version="1.1" id="Layer_1" xmlns="http://www.w3.org/2000/svg" xmlns:xlink="http://www.w3.org/1999/xlink" x="0px" y="0px"
	 viewBox="0 0 508 560" enable-background="new 0 0 508 560" xml:space="preserve">
<g>
	<defs>
		<rect id="SVGID_1_" x="-16" y="1.7" width="555" height="556.6"/>
	</defs>
	<clipPath id="SVGID_2_">
		<use xlink:href="#SVGID_1_"  overflow="visible"/>
	</clipPath>
	<path clip-path="url(#SVGID_2_)" fill="#C57129" d="M501.9,427.8c-30.6-26-53.1-37.8-53.1-80.8V235
		c-0.3-86.3-59.5-168.9-148.2-189.9c0,0-2.9-43.6-46.4-43.6c-44.2,0-46.4,42.3-46.4,42.3C119.2,64.8,60.6,148.7,60.1,235v108.5
		c0,43-23,57.1-53.8,84.1v21.2h495.6V427.8z"/>
	<path clip-path="url(#SVGID_2_)" fill="#C57129" d="M254.2,556.7c47.4,0,87.2-37.9,97.9-86.3H156.3
		C167,518.8,206.7,556.7,254.2,556.7z"/>
	<path clip-path="url(#SVGID_2_)" d="M254.2,556.7"/>
</g>
</svg>
