<?xml version="1.0" encoding="utf-8"?>
<!-- Generator: Adobe Illustrator 18.1.1, SVG Export Plug-In . SVG Version: 6.00 Build 0)  -->
<svg version="1.1" id="Layer_1" xmlns="http://www.w3.org/2000/svg" xmlns:xlink="http://www.w3.org/1999/xlink" x="0px" y="0px"
	 viewBox="0 0 638 553" enable-background="new 0 0 638 553" xml:space="preserve">
<g>
	<path fill="#CCCCCC" d="M635.7,173.4c0-94.4-76.6-171-171-171c-61.7,0-115.5,32.8-145.6,81.7C289,35.2,235.1,2.4,173.5,2.4
		C79,2.4,2.5,79,2.5,173.4c0,51.4,22.8,97.4,58.7,128.7l242.3,242.3c4.1,4.1,9.8,6.5,15.6,6.5c5.9,0,11.5-2.3,15.6-6.5L577,302.2
		C612.9,270.8,635.7,224.8,635.7,173.4L635.7,173.4z M635.7,173.4"/>
</g>
</svg>
