<?xml version="1.0" encoding="utf-8"?>
<!-- Generator: Adobe Illustrator 18.1.1, SVG Export Plug-In . SVG Version: 6.00 Build 0)  -->
<svg version="1.1" id="Layer_1" xmlns="http://www.w3.org/2000/svg" xmlns:xlink="http://www.w3.org/1999/xlink" x="0px" y="0px"
	 viewBox="0 0 635.2 550.3" enable-background="new 0 0 635.2 550.3" xml:space="preserve">
<g>
	<path fill="#C57129" d="M634.2,171.8c0-94.4-76.6-171-171-171c-61.7,0-115.5,32.8-145.6,81.7C287.5,33.5,233.6,0.8,172,0.8
		C77.5,0.8,1,77.3,1,171.8c0,51.4,22.8,97.4,58.7,128.7L302,542.8c4.1,4.1,9.8,6.5,15.6,6.5c5.9,0,11.5-2.3,15.6-6.5l242.3-242.3
		C611.4,269.2,634.2,223.2,634.2,171.8L634.2,171.8z M634.2,171.8"/>
</g>
</svg>
