<?xml version="1.0" encoding="utf-8"?>
<!-- Generator: Adobe Illustrator 18.1.1, SVG Export Plug-In . SVG Version: 6.00 Build 0)  -->
<svg version="1.1" id="Layer_1" xmlns="http://www.w3.org/2000/svg" xmlns:xlink="http://www.w3.org/1999/xlink" x="0px" y="0px"
	 viewBox="0 0 543 539" enable-background="new 0 0 543 539" xml:space="preserve">
<g>
	<defs>
		<rect id="SVGID_1_" x="4.6" y="2.4" width="551.8" height="552.6"/>
	</defs>
	<clipPath id="SVGID_2_">
		<use xlink:href="#SVGID_1_"  overflow="visible"/>
	</clipPath>
	<path clip-path="url(#SVGID_2_)" fill="#C57129" d="M361.8,63.6c-81.6-81.6-214.4-81.6-296,0c-81.5,81.6-81.5,214.3,0,295.9
		c72.7,72.6,185.8,80.4,267.3,23.7c1.7,8.1,5.7,15.9,12,22.2l118.7,118.8c17.4,17.3,45.3,17.3,62.5,0c17.4-17.3,17.4-45.3,0-62.5
		L407.6,342.8c-6.3-6.3-14.1-10.2-22.2-11.9C442.2,249.3,434.4,136.2,361.8,63.6L361.8,63.6z M324.2,322
		c-60.9,60.9-160,60.9-220.9,0c-60.9-61-60.9-160,0-221c60.9-60.9,160-60.9,220.9,0C385.1,162,385.1,261.1,324.2,322L324.2,322z
		 M324.2,322"/>
</g>
</svg>
